<svg xmlns="http://www.w3.org/2000/svg" width="272" height="116"><defs><clipPath id="e"><path fill="none" d="M0 0h272v116H0z"/></clipPath><style>.f{fill:#ff622c}</style></defs><g id="b"><g id="c"><g clip-path="url(#e)" id="d"><path class="f" d="M22.896 37.26c-2.214 6.534-6.048 10.206-12.528 12.42-1.296.432-5.022 1.567-6.21 1.567-1.512 0-2.214-1.836-2.862-3.402-.378-.865-.918-2.43-.918-3.403 0-.863.864-.918 1.62-.972 3.672-.378 7.992-1.782 10.422-4.698.702-.81 1.998-2.916 1.998-3.996 0-.702-.54-.81-1.296-.81H9.396c-2.268 0-4.536.108-6.858.108-1.188 0-1.296-.594-1.296-2.214v-2.754c0-1.512.108-2.052 1.35-2.052 2.268 0 4.536.162 6.804.162h31.86c2.268 0 4.536-.162 6.805-.162 1.242 0 1.35.594 1.35 2.322v2.484c0 1.62-.108 2.214-1.296 2.214-2.323 0-4.59-.108-6.859-.108h-5.454c-.864 0-1.511.648-1.511 1.513v5.724c0 1.566.053 2.267 2.105 2.267h3.187c.485 0 .917-.053 1.188-.378.594-.648.81-1.89 1.025-4.374.109-1.241.325-1.998 1.62-1.998s2.754.378 3.943.81c1.296.487 2.106.972 2.106 2.376 0 2.215-1.134 6.534-2.268 8.479-1.188 1.997-2.322 2.322-4.968 2.322h-9.774c-4.05 0-6.48-.378-6.48-5.67 0-1.35.108-2.755.108-4.159v-5.4a1.51 1.51 0 0 0-1.513-1.512h-1.782c-.432 0-.648.055-.648.325 0 .215.216.323.54.377.594.108 1.836.324 1.836 1.026 0 .432-.702.703-1.026.81-.432.216-.432.378-.594.756ZM11.988 14.094c-1.458 0-1.944.81-1.944 1.512s.216 2.268.216 2.646c0 1.188-.864 1.296-2.43 1.296H4.428c-1.566 0-2.376-.108-2.376-1.296 0-.648.162-1.944.162-2.916v-2.808c0-1.458-.108-3.186-.108-3.564 0-1.89 2.322-1.89 3.672-1.89 2.106 0 4.158.108 6.21.108h7.29c1.242 0 1.728-.756 1.728-1.512 0-.432-.108-1.62-.162-2.052 0-.162-.054-.378-.054-.54 0-.702.648-.756 1.188-.756 1.512 0 4.536.216 6.048.324 1.566.108 2.7.216 2.7.864 0 .378-.27.54-.594.81-.378.324-.54.918-.54 1.404 0 .594.432 1.458 1.945 1.458h7.128c2.052 0 4.104-.108 6.21-.108 1.35 0 3.672 0 3.672 1.89 0 .27-.109 1.944-.109 3.564v3.186c0 .864.163 2.322.163 2.916 0 1.242-.864 1.35-2.592 1.35h-3.133c-1.565 0-2.483-.108-2.483-1.35 0-.648.215-1.782.215-3.078 0-.54-.378-1.458-1.781-1.458H11.988Zm20.52 3.672c1.945 0 3.834-.108 5.779-.108 1.35 0 1.458.594 1.458 2.214v2.592c0 1.566-.162 2.106-1.458 2.106-1.945 0-3.834-.108-5.779-.108H18.144c-1.944 0-3.888.108-5.832.108-1.35 0-1.458-.648-1.458-2.322v-2.322c0-1.728.162-2.268 1.512-2.268 1.404 0 3.78.108 4.752.108h15.39ZM90.018 28.566c-.54 0-1.026.432-1.026 1.026v1.08c0 .702.54 1.296 1.296 1.296h2.484c2.16 0 4.374-.162 6.535-.162 1.458 0 1.511.757 1.511 2.755v2.16c0 1.727-.053 2.43-1.511 2.43-2.215 0-4.374-.163-6.535-.163h-2.484a1.28 1.28 0 0 0-1.296 1.296v.81c0 .702.54 1.297 1.296 1.297h9.127c2.376 0 4.697-.162 7.074-.162 1.296 0 1.404.647 1.404 2.321v3.133c0 1.728-.108 2.376-1.404 2.376-2.377 0-4.753-.162-7.074-.162H69.93c-2.322 0-4.698.162-7.074.162-1.296 0-1.404-.648-1.404-2.376V44.55c0-1.674.108-2.321 1.404-2.321 2.376 0 4.752.162 7.074.162h9.234c.702 0 1.296-.595 1.296-1.297v-.81c0-.701-.594-1.296-1.296-1.296h-2.592c-2.214 0-4.428.162-6.588.162-1.404 0-1.512-.81-1.512-2.106v-2.646c0-1.998.108-2.592 1.512-2.592 2.16 0 4.374.162 6.588.162h2.592c.702 0 1.296-.594 1.296-1.296v-1.08c0-.54-.486-1.026-1.08-1.026h-1.458c-1.998 0-4.05.108-6.048.108-1.566 0-1.566-.702-1.566-2.592v-.162c0-.432 0-1.026-.594-1.026-.432 0-1.026.486-1.404.756-.756.54-2.106 1.566-3.024 1.566-2.214 0-4.698-4.32-4.698-5.724 0-.702.648-.918 1.404-1.35 4.482-2.484 9.288-5.832 12.798-9.504 2.106-2.214 4.698-5.454 6.21-8.1.216-.486.378-.756.918-.756.756 0 4.86.756 6.156.972 1.566.27 2.754.432 2.754 1.242 0 .216-.108.378-.216.54a1.497 1.497 0 0 0-.162.702c0 .648.487 1.242.864 1.728 4.482 5.778 9.882 9.558 16.579 12.474 1.35.594 1.728.756 1.728 1.35 0 1.674-2.323 6.534-4.159 6.534-.863 0-4.05-1.998-4.914-2.538-.215-.162-.54-.324-.81-.324-.593 0-.593.486-.593 1.08 0 2.592-.055 3.132-1.62 3.132-1.999 0-3.997-.108-5.995-.108h-1.512Zm2.97-7.074c1.242 0 1.836-.054 1.836-.54 0-.216-.27-.486-.486-.648-3.024-2.43-5.886-5.346-8.316-8.424-.324-.432-.756-1.08-1.35-1.08-.432 0-.756.378-1.026.702a101.586 101.586 0 0 1-8.586 8.802c-.216.162-.54.432-.54.702 0 .486.648.486 2.106.486h16.362ZM138.402 12.852c.81 0 1.512-.648 1.512-1.458V8.316c0-1.674 0-3.51-.162-4.752-.054-.162-.054-.378-.054-.486 0-.756.54-.864 1.134-.864.756 0 4.914.378 7.614.702.81.108 1.134.27 1.134.756 0 .27-.162.486-.594.864-.432.378-.54 1.134-.54 3.186v3.564c0 .81.702 1.566 1.512 1.566h7.56c2.322 0 4.698-.162 7.02-.162 1.404 0 1.459.702 1.459 2.862v2.376c0 2.052-.163 2.646-1.458 2.646-2.323 0-4.699-.162-7.02-.162h-7.561c-.81 0-1.512.702-1.512 1.512v3.402c0 .81.702 1.512 1.512 1.512h5.184c2.268 0 4.536-.162 6.804-.162 1.512 0 1.62.648 1.62 2.376v2.916c0 1.783-.162 2.376-1.673 2.376-2.269 0-4.483-.108-6.75-.108h-5.185a1.51 1.51 0 0 0-1.512 1.513v4.697c0 .81.702 1.513 1.512 1.513h9.45c2.43 0 4.86-.163 7.29-.163 1.458 0 1.567.595 1.567 2.43v3.025c0 1.835-.109 2.43-1.567 2.43-2.43 0-4.86-.108-7.29-.108H129.06c-2.43 0-4.86.108-7.29.108-1.458 0-1.566-.595-1.566-2.43v-3.024c0-1.836.108-2.43 1.566-2.43 2.43 0 4.86.162 7.29.162h9.342c.81 0 1.512-.703 1.512-1.513V35.75a1.51 1.51 0 0 0-1.512-1.513h-5.076c-2.214 0-4.482.108-6.696.108-1.512 0-1.674-.54-1.674-2.376v-1.836c0-1.08-.756-1.512-1.998-1.998-.972-.378-3.618-1.566-3.618-2.7 0-.54.486-1.134.81-1.566 4.05-5.4 6.48-11.934 7.452-18.576.108-.756.162-1.35.918-1.35.81 0 5.562 1.296 6.966 1.674 1.026.27 1.458.432 1.458.972s-.594.918-1.08 1.134c-.972.432-1.026.756-1.296 1.836-.162.594-.432 1.728-.432 2.16 0 .918.756 1.08 1.512 1.134h2.754Zm0 13.986c.81 0 1.512-.702 1.512-1.512v-3.402c0-.81-.702-1.512-1.512-1.512h-5.454c-1.89 0-2.376 1.134-2.97 2.322-.378.81-.972 1.944-1.242 2.376-.27.432-.432.702-.432.972 0 .756 1.026.756 5.022.756h5.076ZM216.595 16.956c0 .378.648.432.918.432h1.242c2.214 0 4.428-.108 6.642-.108 1.296 0 1.458.162 1.458 2.376v1.782c0 1.998-.162 2.268-1.458 2.268-2.214 0-4.428-.054-6.642-.054h-4.536c-.378 0-.756.054-.756.486v.324c0 .324-.324.594-.54.81-.486.432-.486.972-.486 1.566 0 .81.647 1.188 1.404 1.188h3.617c2.053 0 4.105-.108 6.157-.108 1.026 0 1.134.54 1.134 1.782v2.268c0 1.404-.108 1.944-1.188 1.944-2.052 0-4.104-.108-6.103-.108h-4.05c-.54 0-1.025.432-1.025 1.026v.216c0 .594.486 1.026 1.026 1.026h3.294c1.674 0 3.348-.108 5.022-.108 1.404 0 1.404.703 1.404 2.808v.972c0 1.35-.108 1.998-1.35 1.998-1.674 0-3.402-.108-5.076-.108h-3.294c-.54 0-1.026.487-1.026 1.027v.216c0 .54.486 1.025 1.026 1.025h7.182c1.89 0 3.834-.108 5.778-.108 1.458 0 1.458.486 1.458 3.079v1.025c0 1.89-.216 2.16-1.458 2.16-1.944 0-3.888-.107-5.778-.107h-23.437c-1.944 0-3.834.108-5.778.108-1.188 0-1.458-.378-1.458-1.998v-2.106c0-1.836.216-2.16 1.458-2.16 1.944 0 3.834.107 5.778.107h6.427c.54 0 1.025-.485 1.025-1.026V42.5a.853.853 0 0 0-.863-.865h-1.027c-1.674 0-3.347.108-5.075.108-1.189 0-1.297-.648-1.297-1.674v-.215c0-.163-.053-.433-.27-.433-.216 0-.431.433-.594.648-.324.54-.755 1.296-1.458 1.296-.972 0-2.376-.756-3.132-1.241-.216-.163-.486-.379-.81-.379-.432 0-.54.81-.648 1.189-.54 2.43-1.242 4.914-2.268 7.235-1.08 2.484-1.458 2.863-2.376 2.863-1.296 0-5.67-2.107-5.67-3.565 0-.215.108-.378.162-.593 3.186-6.049 3.888-12.205 3.888-18.955v-4.104c0-1.566-.108-3.024-.108-4.32 0-1.89 1.35-2.214 3.51-2.214 1.296 0 2.862.108 4.644.108.27 0 .594-.162.594-.486 0-.324-.54-1.404-.702-1.728-.216-.432-.594-1.188-.648-1.62-.108-.648-.378-.648-1.242-.648-1.836 0-3.672.108-5.508.108-1.35 0-1.458-.486-1.458-1.782V8.586c0-1.512.108-1.998 1.404-1.998 2.16 0 4.32.162 6.48.162h7.992c.864 0 1.566-.702 1.566-1.566 0-.27-.108-1.458-.162-1.782-.053-.27-.053-.324-.053-.486 0-.702.648-.756 1.241-.756 1.35 0 5.13.324 6.589.486 1.458.162 1.89.27 1.89.756 0 .324-.217.432-.648.702-.379.27-.486.702-.486 1.134 0 .864.647 1.512 1.512 1.512h8.532c2.16 0 4.266-.162 6.426-.162 1.296 0 1.404.486 1.404 1.782v2.862c0 1.35-.162 1.782-1.404 1.782-1.782 0-3.51-.108-5.292-.108-.108 0-.378 0-.378.162 0 .108.162.216.27.27.324.162.486.27.486.648 0 .486-.324.594-.702.594-.54.054-.972.108-1.296.54-.27.378-1.026 1.512-1.026 1.836Zm-12.852 11.07c.701 0 .863-.702.863-1.242 0-1.566 0-3.132-1.565-3.132h-10.854c-.865 0-1.513.648-1.513 1.512v4.266c0 1.89-.216 4.374-.216 4.698 0 .163.054.594.324.594.648 0 3.024-5.994 3.834-9.72.162-.702.324-.864.757-.864.647 0 4.914 1.188 5.777 1.458.595.162 1.405.27 1.405.918 0 .27-.217.432-.379.594-.216.108-.486.324-.486.54 0 .27.27.324.486.378h1.567Zm0 8.046c.54 0 .863-.378.863-.864v-.378c0-.594-.485-1.026-1.025-1.026h-3.619c-1.781 0-1.89 1.296-1.89 1.62 0 .648.918.648 4.644.648h1.027Zm3.456-18.684c1.08 0 1.62-.54 1.998-1.458.216-.594.756-1.782.756-2.376 0-.54-.486-.648-.973-.648h-9.233c-.54 0-.973.162-.973.756 0 .324.163.648.27.918.486 1.08.486 1.728.595 2.16.108.54.161.648.81.648h6.75ZM9.828 105.364c0 2.755.162 5.509.162 8.262 0 1.405-.54 1.566-2.16 1.566H4.428c-1.566 0-2.106-.161-2.106-1.511 0-2.755.162-5.562.162-8.317v-28.62c0-1.944-.108-3.888-.108-5.778 0-2.214.864-3.024 3.024-3.024 1.674 0 3.402.162 5.076.162h3.294c1.62 0 2.7-.162 3.888-.162 2.16 0 3.888 2.214 3.888 3.672 0 1.836-3.51 9.072-4.536 11.016-.162.324-.486.972-.486 1.296 0 .378.324.81.54 1.134 2.214 3.348 4.05 6.534 4.05 10.692 0 3.186-.702 5.778-3.51 7.506-1.458.865-3.888 1.566-5.508 1.566-.756 0-1.242-.161-1.62-.81-.054-.108-.216-.27-.324-.27-.27 0-.324.109-.324.702v.918Zm0-25.542c0 .324 0 .864.324.864.486 0 2.106-4.32 2.106-5.13 0-.648-.324-.702-.756-.702h-.972c-.432 0-.702.324-.702.702v4.266Zm0 16.74c0 .756.432.756 1.35.756 1.404 0 2.16-.702 2.16-2.106 0-3.078-2.16-7.506-3.024-7.506-.486 0-.486.54-.486 1.026v7.83Zm34.29 4.915c-.377.323-.647.593-.647 1.08 0 .485.378.81.918 1.403.162.108.323.27.485.433 1.026.971 3.024 2.376 4.212 3.24.27.161.54.324.54.701 0 1.513-3.131 5.778-4.805 5.778-1.35 0-6.21-5.183-7.237-6.425-.162-.163-.324-.378-.594-.378-.378 0-.486.431-.486.755 0 1.026-.053 1.836-.755 2.16-.973.432-10.26 2.269-12.097 2.647-1.944.378-2.862.593-3.186.755-.432.217-.54.486-.918 1.026-.216.325-.378.487-.702.487-.594 0-.864-.918-1.404-2.646-.162-.54-.378-1.135-.594-1.783s-.918-2.591-.918-3.186c0-.702.378-.755 2.16-1.025.756-.108 1.62-.217 2.484-.378 1.512-.27 1.89-.703 1.89-2.323V76.69c0-1.89-.108-3.834-.108-5.778 0-2.106.81-2.97 2.97-2.97 1.782 0 3.51.108 5.292.108h7.129c1.728 0 3.456-.108 5.237-.108 1.62 0 3.025.324 3.025 2.97 0 1.944-.162 3.888-.162 5.778v6.48c0 1.944.162 3.888.162 5.832 0 1.08-.27 2.268-1.405 2.754-.215.108-.323.216-.323.432 0 .324 1.134 1.35 2.214 2.376.594.54 2.646 2.376 2.646 3.078 0 .756-.81.756-1.404.756-.27 0-.379.108-.54.27-.757.756-2.215 2.106-3.078 2.809ZM37.208 77.5a1.28 1.28 0 0 0 1.295-1.296v-.216a1.28 1.28 0 0 0-1.295-1.296h-6.103c-.702 0-1.295.594-1.295 1.296v.216c0 .756.593 1.242 1.295 1.296h6.103Zm-6.103 5.292a1.28 1.28 0 0 0-1.295 1.296v.108a1.28 1.28 0 0 0 1.295 1.296h6.103c.755 0 1.295-.54 1.295-1.296v-.108c0-.756-.54-1.242-1.295-1.296h-6.103ZM29.81 102.34c0 .432 0 1.728 1.08 1.728.27 0 1.133-.215 1.403-.27.703-.162 1.566-.323 1.566-1.133 0-.487-.27-.918-.485-1.35-1.405-2.593-2.43-5.887-2.809-8.803-.054-.324-.162-.648-.432-.648s-.323.432-.323.648v9.828Zm12.312-9.774c0-.594-.54-.756-3.079-.756-.54 0-1.512 0-1.512.864 0 .378.487 1.728.649 2.16.378 1.026.486 1.458 1.026 1.458.648 0 2.916-3.348 2.916-3.726ZM80.082 91.216a1.51 1.51 0 0 0-1.512-1.512h-2.592c-1.998 0-3.996.162-6.048.162-1.404 0-1.566-.648-1.566-2.322v-1.998c0-.756-.594-1.404-1.35-1.404h-3.996c-1.08 0-2.106-.108-2.106-1.404 0-.972.216-2.106.216-3.078v-2.322c0-1.836-.162-3.24-.162-3.78 0-1.998 2.376-1.998 3.834-1.998 2.16 0 4.374.108 6.534.108h6.858c.972 0 1.89-.378 1.89-1.566 0-.594-.216-2.376-.216-2.538 0-.81.594-.864 1.188-.864 1.566 0 4.59.27 6.21.432 1.242.108 2.106.162 2.106.864 0 .324-.216.486-.54.81-.378.378-.486.918-.486 1.458 0 .702.54 1.404 1.674 1.404h7.236c2.16 0 4.374-.108 6.588-.108 1.405 0 3.78 0 3.78 1.998 0 .432-.107 2.268-.107 3.78v2.106c0 .972.162 2.268.162 3.078 0 1.296-1.027 1.404-2.107 1.404h-3.996c-.81 0-1.404.594-1.404 1.404v2.7c0 1.242-.27 1.836-1.566 1.836-2.052 0-4.05-.162-6.048-.162h-2.7c-.81 0-1.512.702-1.512 1.512v1.08c0 1.404.648 1.944 2.052 1.944h.864c2.052 0 4.05-.108 6.049-.108 1.458 0 1.565.648 1.565 2.268v2.754c0 1.566-.107 2.268-1.458 2.268-2.052 0-4.104-.108-6.156-.108h-.972c-1.296 0-1.944.594-1.944 1.944v1.62c0 1.296.756 1.836 1.998 1.836h3.132c4.375 0 8.046-.215 12.366-.648a14.23 14.23 0 0 1 1.567-.107c1.133 0 1.241 1.08 1.241 1.998 0 1.565-.378 4.697-1.673 5.67-.81.594-1.783.594-3.997.594h-9.774c-8.37 0-15.498-.162-20.196-4.59-.27-.216-.594-.54-.972-.54-.432 0-.756.486-.918.81-.594 1.08-1.62 2.97-2.322 3.942-.378.54-.702.971-1.404.971-1.35 0-6.48-1.835-6.48-3.51 0-.486.378-1.026.648-1.404 3.456-4.59 5.67-10.854 6.048-16.578.054-.81.108-1.458 1.08-1.458.864 0 4.374.702 5.4.918 2.106.486 3.294.648 3.294 1.404 0 .378-.378.648-.648.756-.972.432-1.026.702-1.242 1.944-.054.378-.108.81-.27 1.458a5.773 5.773 0 0 0-.162 1.35c0 1.404.432 2.053 1.296 3.024.54.595 2.322 2.106 3.078 2.106.54 0 .648-.593.648-1.35V91.217Zm-9.45-13.068c-1.08 0-1.674.54-1.674 1.404 0 2.97.108 3.24 4.86 3.24H95.04c4.211 0 4.374-.324 4.374-3.132 0-.918-.757-1.512-1.675-1.512H70.632ZM129.168 66.106c.594 0 4.212.432 6.156.648.756.108 1.35.27 1.35.648 0 .432-.432.648-.756.81-.486.216-.648.81-.648 1.134 0 .432.486.486.81.486 1.08 0 2.214-.108 3.294-.108 1.458 0 2.322.378 2.322 1.944 0 1.242-.108 2.592-.108 4.05v3.456c0 .324.162.648.54.648.162 0 .324-.054.378-.054.702 0 .702.918.702 2.538 0 1.944-.108 2.646-.972 2.97-.54.216-.648.27-.648.864v2.376c0 1.242.108 2.484.108 3.726 0 4.482-2.916 5.67-6.858 5.67-1.836 0-2.16-.648-2.484-2.43-.162-.864-.432-1.188-1.512-1.188-.108 0-.27.054-.378.054-.702 0-1.026-.108-1.026-.81 0-1.08.054-2.322.054-3.456v-1.35c0-.756 0-1.296-.486-1.296-.648 0-.756 1.026-.864 1.512a37.928 37.928 0 0 1-1.08 4.266c-.432 1.35-1.242 3.294-1.998 4.482-.216.378-.432.486-.864.486-1.08 0-5.184-1.62-5.184-2.916 0-.27.378-.972.702-1.512.756-1.35 1.89-3.996 1.89-4.752 0-.216-.109-.216-.216-.216-.163 0-.324.27-.648.27-.27 0-.486-.432-.648-1.08-.27-1.296-.81-4.59-.81-4.806 0-.324.162-.54.755-.594.865-.054 1.135-.108 1.567-.162 1.08-.162 1.188-.864 1.188-2.43v-4.266c0-1.458-.054-2.808-.054-4.05 0-1.566.864-1.944 2.268-1.944.486 0 .918.054 1.404.054 1.08 0 1.404-.27 1.566-1.188.054-.378.162-.972.216-1.512.108-.81.162-.972.972-.972Zm-3.888 38.557c0-1.08-.054-2.16-.054-3.24 0-1.999.756-2.377 2.592-2.377 1.134 0 2.268.054 3.402.054h25.002c1.134 0 2.268-.054 3.402-.054 1.782 0 2.592.378 2.592 2.322 0 1.08-.053 2.215-.053 3.295v1.943c0 1.08.81 1.513 1.781 1.513.81 0 1.566-.055 2.323-.055 1.403 0 1.511.54 1.511 2.053v2.537c0 1.405-.108 1.998-1.403 1.998s-2.646-.108-3.997-.108h-37.206c-1.35 0-2.7.108-3.996.108s-1.405-.648-1.405-2.16v-2.214c0-1.62.109-2.214 1.459-2.214.81 0 1.62.055 2.43.055 1.026 0 1.62-.487 1.62-1.458v-1.998Zm10.206-28.135c0-.702-.594-1.296-1.296-1.296h-.594c-.216 0-.486.054-.486.324 0 .162.216.432.486.756.378.432 1.62 2.106 1.62 2.592 0 .324-.432.594-1.404 1.296-.54.378-1.242.864-1.728.864-.324 0-.432-.162-.594-.378-.54-.81-1.458-1.998-2.106-2.7-.162-.162-.216-.27-.216-.486 0-.594 1.026-1.188 1.458-1.512.162-.108.486-.324.486-.486 0-.216-.27-.27-.432-.27h-.486c-.702 0-1.296.594-1.296 1.296v3.996c0 .702.27 1.026 1.026 1.026.486 0 3.726-.432 4.104-.486 1.08-.216 1.458-.432 1.458-1.242v-3.294Zm-2.754 30.618c0 .594.486 1.026 1.08 1.026h.432c.594 0 1.08-.485 1.08-1.026v-1.08c0-.54-.486-1.025-1.08-1.025h-.432c-.594 0-1.08.485-1.08 1.025v1.08Zm2.754-19.548c0-.324-.054-.972-.54-.972-.324 0-.918.486-1.026.702-.054.162-.054.486-.054 1.404v1.35c0 .756 0 1.566.81 1.566s.81-.702.81-2.808v-1.242Zm19.98-19.98c.81 0 1.62-.054 2.43-.054 1.35 0 2.16.162 2.16 1.728v3.456c0 1.134 0 1.62.54 1.62h.162c.702 0 .865-.108 1.242-2.214.108-.648.108-1.026 1.026-1.026 1.026 0 5.077.756 5.077 2.376 0 1.296-.973 3.996-1.783 5.076-1.133 1.458-3.024 1.458-4.752 1.458h-3.131c-1.243 0-2.485-.216-3.403-1.026-.918-.81-.918-1.512-.918-2.808v-1.836c0-.486-.378-.864-.972-.864-1.134 0-1.188.594-1.404 1.512-.432 1.89-1.35 3.618-2.538 5.13-.108.108-.378.432-.378.594 0 .324.648.324 1.296.324h7.128c1.998 0 3.888-.162 4.806-.162 1.404 0 1.782.594 2.7 1.728.54.648 1.243 1.458 1.243 2.376 0 1.242-3.295 4.59-4.267 5.508-.27.216-.647.54-.647.918 0 .54 1.565.972 2.753 1.242s2.376.486 3.564.702c.595.108.81.27.81.864 0 1.512-1.295 5.022-3.24 5.022-1.782 0-7.452-2.268-9.288-3.132-.432-.216-.864-.378-1.296-.378-.702 0-1.512.378-2.106.594-1.08.432-5.67 2.16-6.534 2.16-1.944 0-3.564-4.752-3.564-5.292 0-.594.702-.702 1.944-.864.702-.108 4.104-.702 4.104-1.512 0-.324-.378-.756-.594-.972-.216-.27-.594-.756-.864-1.242-.216-.324-.27-.486-.27-.648 0-.432.486-.756.81-.972.216-.162.27-.216.27-.378s-.378-.162-.486-.162h-1.836c-1.08 0-1.188-.432-1.188-1.728v-1.62c0-1.836.054-2.106 1.242-2.214.162 0 .324-.054.324-.216s-.162-.324-.378-.432c-.594-.27-2.592-1.35-2.592-2.052 0-.378.324-.702.54-.918 1.998-2.214 2.376-5.13 2.376-7.992 0-1.458.648-1.728 2.322-1.728.972 0 1.512.054 2.808.054h4.752Zm-10.692 38.448c0-.54-.432-1.025-1.026-1.025h-.486c-.54 0-1.026.485-1.026 1.025v1.08c0 .54.486 1.026 1.026 1.026h.486c.594 0 1.026-.432 1.026-1.026v-1.08Zm7.182 1.08c0 .594.432 1.026 1.026 1.026h.486c.594 0 1.026-.485 1.026-1.026v-1.08c0-.54-.432-1.025-1.026-1.025h-.486c-.54 0-1.026.485-1.026 1.025v1.08Zm1.512-20.79c-.27 0-.864.054-.864.432 0 .486 1.35 1.674 2.052 1.674.81 0 2.484-1.296 2.484-1.728 0-.378-.81-.378-1.35-.378h-2.322Z"/></g></g></g></svg>